<svg xmlns="http://www.w3.org/2000/svg" viewBox="0 0 1210 170" width="1210" height="170">
  <defs>
    <style>
      .font-sans { font-family: 'Inter', system-ui, -apple-system, sans-serif; }
      .shadow-sm { filter: drop-shadow(0 1px 2px rgba(0,0,0,0.04)); }
    </style>
  </defs>
  <rect width="1210" height="170" fill="#F8FAFC"/>
  <g transform="translate(20, 20)">
    <rect width="1170" height="130" rx="10" fill="#FFFFFF" stroke="#E2E8F0" stroke-width="1" class="shadow-sm"/>
    <g transform="translate(20, 24)">
      <text x="0" y="0" class="font-sans" font-size="13" font-weight="800" fill="#0F172A" letter-spacing="0.5">BỘ LỌC ĐƠN HÀNG</text>
      <rect x="150" y="-14" width="105" height="24" rx="12" fill="#EFF6FF"/>
      <text x="162" y="3" class="font-sans" font-size="11" font-weight="700" fill="#2563EB">Bộ lọc Shop</text>
    </g>
    <g transform="translate(20, 50)">
      <g transform="translate(0, 0)">
        <text x="0" y="0" class="font-sans" font-size="11.5" font-weight="600" fill="#475569">Thời gian tạo đơn</text>
        <rect y="8" width="260" height="38" rx="6" fill="#F8FAFC" stroke="#CBD5E1"/>
        <g transform="translate(10, 18) scale(0.6666666666666666)" fill="none" stroke="#64748B" stroke-width="2" stroke-linecap="round" stroke-linejoin="round"><path d="M8 2v4"/><path d="M16 2v4"/><rect width="18" height="18" x="3" y="4" rx="2"/><path d="M3 10h18"/></g>
        <text x="34" y="32" class="font-sans" font-size="12.5" fill="#0F172A">7 ngày trước (08/09 - 14/09)</text>
        <g transform="translate(234, 19) scale(0.5833333333333334)" fill="none" stroke="#64748B" stroke-width="2" stroke-linecap="round" stroke-linejoin="round"><path d="m6 9 6 6 6-6"/></g>
      </g>
      <g transform="translate(275, 0)">
        <text x="0" y="0" class="font-sans" font-size="11.5" font-weight="600" fill="#475569">Đối tác vận chuyển</text>
        <rect y="8" width="220" height="38" rx="6" fill="#F8FAFC" stroke="#CBD5E1"/>
        <g transform="translate(10, 18) scale(0.6666666666666666)" fill="none" stroke="#64748B" stroke-width="2" stroke-linecap="round" stroke-linejoin="round"><path d="M14 18V6a2 2 0 0 0-2-2H4a2 2 0 0 0-2 2v11a1 1 0 0 0 1 1h2"/><path d="M15 18H9"/><path d="M19 18h2a1 1 0 0 0 1-1v-3.65a1 1 0 0 0-.22-.62l-3.23-4.27a1 1 0 0 0-.78-.46H14"/><circle cx="7" cy="18" r="2"/><circle cx="17" cy="18" r="2"/></g>
        <text x="34" y="32" class="font-sans" font-size="12.5" fill="#0F172A">Tất cả NVC</text>
        <g transform="translate(194, 19) scale(0.5833333333333334)" fill="none" stroke="#64748B" stroke-width="2" stroke-linecap="round" stroke-linejoin="round"><path d="m6 9 6 6 6-6"/></g>
      </g>
      <g transform="translate(510, 0)">
        <text x="0" y="0" class="font-sans" font-size="11.5" font-weight="600" fill="#475569">Loại tài khoản cước</text>
        <rect y="8" width="230" height="38" rx="6" fill="#F8FAFC" stroke="#CBD5E1"/>
        <text x="14" y="32" class="font-sans" font-size="12.5" fill="#0F172A">Hợp đồng Chung (SuperPlatform)</text>
        <g transform="translate(204, 19) scale(0.5833333333333334)" fill="none" stroke="#64748B" stroke-width="2" stroke-linecap="round" stroke-linejoin="round"><path d="m6 9 6 6 6-6"/></g>
      </g>
      <g transform="translate(755, 0)">
        <text x="0" y="0" class="font-sans" font-size="11.5" font-weight="600" fill="#475569">Trạng thái xử lý</text>
        <rect y="8" width="210" height="38" rx="6" fill="#F8FAFC" stroke="#CBD5E1"/>
        <text x="14" y="32" class="font-sans" font-size="12.5" fill="#0F172A">Tất cả trạng thái</text>
        <g transform="translate(184, 19) scale(0.5833333333333334)" fill="none" stroke="#64748B" stroke-width="2" stroke-linecap="round" stroke-linejoin="round"><path d="m6 9 6 6 6-6"/></g>
      </g>
      <g transform="translate(980, 8)">
        <rect width="140" height="38" rx="6" fill="#E11D48"/>
        <g transform="translate(24, 10) scale(0.6666666666666666)" fill="none" stroke="#FFFFFF" stroke-width="2" stroke-linecap="round" stroke-linejoin="round"><circle cx="11" cy="11" r="8"/><line x1="21" x2="16.65" y1="21" y2="16.65"/></g>
        <text x="48" y="24" class="font-sans" font-size="12.5" font-weight="700" fill="#FFFFFF">TÌM KIẾM</text>
      </g>
    </g>
  </g>
</svg>